<?xml version="1.0" standalone="no"?>
<!DOCTYPE svg PUBLIC "-//W3C//DTD SVG 20010904//EN"
 "http://www.w3.org/TR/2001/REC-SVG-20010904/DTD/svg10.dtd">
<svg version="1.0" xmlns="http://www.w3.org/2000/svg"
 width="287.000000pt" height="287.000000pt" viewBox="0 0 287.000000 287.000000"
 preserveAspectRatio="xMidYMid meet">

<g transform="translate(0.000000,287.000000) scale(0.100000,-0.100000)"
fill="#000000" stroke="none">
<path d="M1410 2719 c-47 -4 -139 -13 -205 -19 -66 -7 -133 -14 -149 -17 -27
-6 -28 -7 -8 -14 14 -5 26 -24 36 -56 l15 -48 0 42 c1 33 6 46 25 58 25 16
149 33 266 35 108 2 110 2 110 -22 0 -21 60 -161 67 -155 1 2 -6 30 -17 62
-32 92 -26 125 25 138 31 7 -71 5 -165 -4z"/>
<path d="M1733 2713 c15 -2 39 -2 55 0 15 2 2 4 -28 4 -30 0 -43 -2 -27 -4z"/>
<path d="M1920 2632 c-13 -64 -10 -134 4 -77 12 51 48 115 65 116 12 0 11 2
-4 9 -43 19 -52 12 -65 -48z"/>
<path d="M920 2661 c-45 -14 -94 -43 -127 -74 -43 -41 -44 -84 -2 -163 49 -95
113 -148 134 -114 3 6 -5 10 -19 10 -30 0 -64 41 -102 123 -30 67 -27 92 16
140 35 38 44 31 54 -41 6 -42 52 -139 62 -129 2 2 -7 28 -21 58 -42 91 -26
169 38 188 18 5 23 9 12 9 -11 0 -31 -3 -45 -7z"/>
<path d="M2035 2645 c23 -67 24 -81 10 -142 -8 -35 -22 -78 -31 -95 -16 -31
-16 -31 -80 -25 -110 11 -141 24 -165 73 -11 24 -23 69 -26 100 -5 51 -8 55
-20 39 -19 -26 -16 -76 7 -142 11 -31 17 -59 15 -62 -3 -2 -49 1 -103 9 -53 7
-131 12 -174 11 -87 -2 -93 2 -125 91 -9 26 -21 48 -26 48 -4 0 -6 -8 -3 -17
3 -10 10 -37 16 -61 6 -24 13 -49 16 -56 7 -19 -90 -49 -139 -43 -51 7 -191
-8 -215 -23 -13 -9 -8 -9 23 -3 22 4 92 8 155 8 63 1 151 7 195 14 54 9 115
11 190 6 61 -4 155 -8 210 -9 83 -1 107 -5 143 -24 27 -15 42 -29 42 -42 0
-36 -47 -146 -144 -337 -62 -121 -122 -260 -170 -391 -88 -241 -93 -250 -136
-244 -45 7 -153 -49 -180 -93 -48 -77 -40 -200 18 -273 36 -45 37 -49 20 -104
-9 -32 -15 -38 -31 -34 -15 4 -17 2 -8 -7 15 -15 14 -27 -2 -27 -17 0 -57 42
-57 59 0 7 9 24 20 38 11 14 20 35 20 47 0 25 -26 66 -42 66 -6 0 -4 -8 5 -18
18 -20 22 -68 8 -91 -11 -17 -19 -3 -56 95 -21 56 -125 387 -125 398 0 2 18 6
40 9 112 15 180 102 182 236 1 61 -2 74 -25 105 -39 50 -83 78 -132 84 -36 4
-54 -1 -98 -26 l-55 -31 -11 44 c-17 69 -13 123 15 194 19 47 25 76 21 104 -8
57 -56 128 -104 155 -41 23 -41 23 -48 2 -10 -32 23 -131 46 -137 21 -6 25
-18 9 -28 -18 -11 -11 -54 61 -362 109 -471 196 -770 262 -903 31 -63 33 -65
71 -65 l39 0 79 195 c145 357 206 514 261 670 32 89 89 221 136 310 81 157
151 323 151 359 0 11 13 41 30 68 43 71 67 170 52 219 -6 22 -19 48 -28 59
-16 20 -16 20 -9 0z m-1087 -452 c2 -8 -5 -13 -17 -13 -12 0 -21 6 -21 16 0
18 31 15 38 -3z m26 -176 c-7 -18 -24 -23 -24 -8 0 22 13 42 22 33 5 -5 6 -16
2 -25z m146 -264 c0 -5 -7 -17 -15 -27 -11 -15 -18 -17 -27 -8 -8 8 -8 15 2
27 13 15 40 21 40 8z m120 -33 c0 -13 -37 -13 -45 0 -3 6 -3 15 0 20 7 12 45
-5 45 -20z m-90 -77 c0 -10 -5 -25 -10 -33 -7 -11 -10 -7 -10 18 0 17 5 32 10
32 6 0 10 -8 10 -17z m110 -45 c0 -30 -25 -15 -28 17 -3 25 -2 27 12 16 9 -8
16 -22 16 -33z m-173 -32 c-4 -9 -11 -16 -17 -16 -11 0 -14 33 -3 44 11 10 26
-11 20 -28z m127 -38 c5 -9 7 -20 4 -23 -10 -10 -48 14 -48 31 0 20 29 14 44
-8z m-76 -87 c3 -8 -1 -12 -9 -9 -7 2 -15 10 -17 17 -3 8 1 12 9 9 7 -2 15
-10 17 -17z m392 -177 c0 -23 -45 -38 -82 -28 -17 5 -33 14 -35 20 -5 15 27
27 41 15 7 -6 20 -4 36 4 27 15 40 11 40 -11z m-150 -100 c0 -15 -6 -24 -15
-24 -16 0 -19 17 -9 44 9 22 24 10 24 -20z m90 -5 c7 -11 9 -28 5 -37 -6 -15
-8 -15 -21 2 -16 23 -19 56 -4 56 5 0 14 -9 20 -21z m-65 -60 c10 -16 -25 -49
-52 -49 -30 0 -29 14 3 39 30 24 40 26 49 10z m12 -103 c-4 -9 -11 -16 -17
-16 -11 0 -14 33 -3 44 11 10 26 -11 20 -28z"/>
<path d="M1146 2308 c5 -22 0 -33 -27 -58 -38 -34 -26 -41 15 -9 27 21 33 53
16 79 -8 11 -9 8 -4 -12z"/>
<path d="M1753 2307 c4 -10 7 -20 7 -22 0 -1 16 -15 36 -30 27 -21 34 -23 26
-9 -16 29 -76 83 -69 61z"/>
<path d="M1320 2295 c6 -8 18 -11 26 -8 22 8 17 18 -11 19 -20 2 -23 -1 -15
-11z"/>
<path d="M1462 2294 c-83 -30 -134 -105 -136 -196 -1 -55 1 -59 44 -102 57
-59 111 -80 190 -74 46 3 66 10 86 29 69 63 99 215 53 273 -26 33 -105 74
-156 80 -22 3 -56 -1 -81 -10z m88 -39 c0 -9 -7 -18 -16 -22 -18 -7 -39 11
-30 26 11 17 46 13 46 -4z m68 -43 c2 -14 -2 -22 -12 -22 -19 0 -29 17 -22 36
8 22 30 12 34 -14z m-169 9 c17 -11 7 -41 -13 -41 -19 0 -29 17 -22 35 6 17
15 18 35 6z m86 -80 c-3 -12 -15 -21 -26 -21 -23 0 -25 17 -2 42 20 22 38 9
28 -21z m-97 -54 c4 -20 -25 -34 -40 -19 -15 15 -1 44 19 40 10 -2 19 -11 21
-21z m180 11 c18 -18 14 -38 -7 -38 -23 0 -35 15 -27 35 7 18 18 19 34 3z
m-58 -109 c10 -18 9 -20 -7 -17 -10 2 -19 11 -21 21 -5 24 15 21 28 -4z m-90
2 c0 -12 -26 -32 -33 -25 -9 10 4 34 19 34 8 0 14 -4 14 -9z"/>
<path d="M1870 2296 c0 -8 5 -18 10 -21 6 -3 10 1 10 9 0 8 -4 18 -10 21 -5 3
-10 -1 -10 -9z"/>
<path d="M1206 2168 c-20 -28 -20 -49 0 -74 15 -18 15 -18 10 8 -3 15 -1 39 4
54 14 35 6 41 -14 12z"/>
<path d="M1793 2094 c-9 -19 -8 -24 3 -24 18 0 30 28 18 40 -5 5 -14 -1 -21
-16z"/>
<path d="M1104 1952 c5 -7 -2 -15 -16 -21 -13 -5 -30 -17 -38 -27 -14 -18 -14
-18 7 0 22 19 53 16 53 -4 0 -6 -5 -21 -11 -32 -9 -16 -8 -19 3 -16 17 6 23
87 7 102 -9 8 -10 8 -5 -2z"/>
<path d="M1275 1852 c6 -6 28 -12 50 -14 34 -3 42 -8 57 -38 l18 -35 0 31 c0
17 -6 36 -13 42 -17 15 -125 28 -112 14z"/>
<path d="M1591 1784 c-30 -25 -41 -54 -21 -54 6 0 10 5 10 11 0 5 15 23 32 40
40 36 21 39 -21 3z"/>
<path d="M1470 1695 c7 -9 15 -13 17 -11 7 7 -7 26 -19 26 -6 0 -6 -6 2 -15z"/>
<path d="M1530 1660 c0 -5 7 -10 16 -10 8 0 12 5 9 10 -3 6 -10 10 -16 10 -5
0 -9 -4 -9 -10z"/>
<path d="M1500 1639 c0 -9 9 -24 19 -33 20 -18 42 -14 40 7 0 9 -2 9 -6 0 -8
-20 -21 -15 -37 15 -9 16 -15 21 -16 11z"/>
<path d="M1416 1581 c-3 -5 0 -35 7 -67 13 -58 14 -58 20 -25 4 18 7 44 7 56
0 25 -25 52 -34 36z"/>
<path d="M1535 1520 c4 -6 11 -8 16 -5 14 9 11 15 -7 15 -8 0 -12 -5 -9 -10z"/>
<path d="M1392 1373 c20 -3 25 -8 21 -21 -6 -16 -5 -16 14 1 22 19 58 23 68 7
3 -5 11 -10 17 -10 7 0 6 6 -2 15 -9 11 -31 15 -79 14 -36 -1 -54 -4 -39 -6z"/>
<path d="M1263 1310 c-23 -21 -39 -58 -29 -67 3 -4 6 1 6 10 0 9 14 23 30 32
17 9 30 22 30 30 0 20 -12 19 -37 -5z"/>
<path d="M1130 1310 c0 -8 5 -22 10 -30 9 -13 10 -13 10 0 0 8 -5 22 -10 30
-9 13 -10 13 -10 0z"/>
<path d="M2518 464 c-63 -19 -98 -62 -98 -120 0 -63 34 -96 134 -131 85 -30
108 -51 90 -80 -7 -12 -27 -19 -58 -21 -41 -3 -50 0 -75 27 -22 24 -38 31 -65
31 -41 0 -43 -5 -19 -55 25 -52 86 -79 167 -73 97 8 146 53 146 133 0 49 -40
86 -119 110 -79 24 -121 50 -121 75 0 47 80 53 135 10 39 -31 51 -35 79 -24
23 9 20 28 -10 64 -49 58 -113 77 -186 54z"/>
<path d="M90 255 l0 -215 45 0 45 0 0 74 0 75 73 -75 c67 -68 76 -74 113 -74
22 0 44 3 47 6 4 4 -20 37 -53 74 l-59 66 36 20 c74 39 92 151 34 216 -32 36
-79 47 -193 48 l-88 0 0 -215z m190 122 c31 -16 49 -72 29 -92 -8 -8 -40 -17
-71 -21 l-58 -7 0 67 0 66 38 0 c20 0 48 -6 62 -13z"/>
<path d="M607 455 c-103 -36 -156 -153 -123 -268 50 -172 294 -201 392 -45 39
62 43 134 11 200 -15 30 -40 66 -56 82 -45 44 -149 58 -224 31z m149 -90 c117
-77 53 -261 -85 -242 -49 6 -78 28 -97 74 -29 68 -9 138 49 174 37 23 93 21
133 -6z"/>
<path d="M1031 452 c-47 -23 -75 -64 -74 -107 2 -65 29 -88 157 -137 66 -26
87 -48 70 -75 -7 -12 -26 -19 -57 -21 -39 -3 -49 1 -77 28 -24 24 -39 30 -63
28 -46 -4 -45 -30 1 -79 34 -37 45 -43 93 -47 67 -5 129 11 169 44 26 22 30
33 30 72 0 29 -7 55 -18 68 -22 28 -83 58 -150 74 -43 10 -53 17 -59 38 -15
59 53 82 112 38 38 -29 92 -35 102 -10 7 19 -41 72 -84 90 -44 19 -111 17
-152 -4z"/>
<path d="M1416 460 c-16 -5 -42 -21 -57 -36 -25 -24 -29 -36 -29 -80 0 -45 4
-57 27 -79 15 -14 57 -35 93 -47 79 -26 110 -45 110 -67 0 -28 -22 -41 -68
-41 -36 0 -49 5 -72 30 -21 23 -37 30 -64 30 -41 0 -45 -13 -20 -61 33 -64
157 -89 241 -48 60 29 77 57 70 116 -6 58 -37 87 -117 109 -85 23 -120 41
-120 62 0 53 85 70 130 27 15 -14 43 -28 63 -32 33 -5 37 -3 37 15 0 12 -14
37 -31 56 -44 50 -119 68 -193 46z"/>
<path d="M1700 255 l0 -215 45 0 45 0 0 215 0 215 -45 0 -45 0 0 -215z"/>
<path d="M1850 255 l0 -215 45 0 44 0 3 136 3 136 74 -118 c94 -148 100 -154
156 -154 l45 0 0 215 0 215 -45 0 -45 0 0 -142 0 -141 -69 109 c-96 150 -119
174 -170 174 l-41 0 0 -215z"/>
<path d="M2270 255 l0 -215 45 0 45 0 0 215 0 215 -45 0 -45 0 0 -215z"/>
</g>
</svg>
